<?xml version="1.0" encoding="UTF-8"?>
<svg width="274px" height="284px" viewBox="0 0 274 284" version="1.1" xmlns="http://www.w3.org/2000/svg" xmlns:xlink="http://www.w3.org/1999/xlink">
    <!-- Generator: Sketch 60.1 (88133) - https://sketch.com -->
    <title>404</title>
    <desc>Created with Sketch.</desc>
    <defs>
        <polygon id="path-1" points="0 0 350 0 350 350 0 350"></polygon>
        <polygon id="path-3" points="0.47782 13.8593 220.0478 13.8593 220.0478 0.4249 0.47782 0.4249"></polygon>
        <polygon id="path-5" points="0 0 350 0 350 350 0 350"></polygon>
        <polygon id="path-7" points="0 0 350 0 350 350 0 350"></polygon>
        <polygon id="path-9" points="0 0 350 0 350 350 0 350"></polygon>
    </defs>
    <g id="页面-1" stroke="none" stroke-width="1" fill="none" fill-rule="evenodd">
        <g id="404" transform="translate(-37.000000, -52.000000)">
            <g id="编组">
                <g id="Clipped">
                    <mask id="mask-2" fill="white">
                        <use xlink:href="#path-1"></use>
                    </mask>
                    <g id="Mask"></g>
                    <g id="编组" opacity="0.0270008" mask="url(#mask-2)">
                        <g transform="translate(60.200000, 321.300000)" id="Clipped">
                            <g>
                                <mask id="mask-4" fill="white">
                                    <use xlink:href="#path-3"></use>
                                </mask>
                                <g id="Mask_2"></g>
                                <path d="M220.0478,7.1421 C220.0478,10.8521 170.8952,13.8593 110.2626,13.8593 C49.63,13.8593 0.47775,10.8521 0.47775,7.1421 C0.47775,3.4321 49.63,0.4249 110.2626,0.4249 C170.8952,0.4249 220.0478,3.4321 220.0478,7.1421" id="路径" fill="#E76650" opacity="0.300003" mask="url(#mask-4)"></path>
                            </g>
                        </g>
                    </g>
                </g>
                <g id="Clipped">
                    <mask id="mask-6" fill="white">
                        <use xlink:href="#path-5"></use>
                    </mask>
                    <g id="Mask_3"></g>
                    <g id="编组" mask="url(#mask-6)">
                        <g transform="translate(37.800000, 130.200000)">
                            <path d="M118.1033,27.1572 L101.5084,0.6328 C101.5084,0.6328 88.543,3.4321 89.1793,29.6562 L118.1033,27.1572 Z" id="路径" fill="#3C2A34"></path>
                            <path d="M111.3644,28.6244 L100.8903,8.1942 C100.8903,8.1942 91.2065,14.2016 91.7217,29.4364 L111.3644,28.6244 Z" id="路径" fill="#E76650"></path>
                            <path d="M106.1704,25.4079 C106.1704,25.4079 105.5145,17.3705 98.1281,15.8823 L100.9708,21.2016 C100.9708,21.2016 99.365,20.2118 96.2731,20.6451 C96.2731,20.6451 99.8599,23.4836 100.1084,26.5489 C100.1084,26.5489 101.2214,23.4549 98.4991,21.2156 C98.4991,21.2156 101.4685,22.0682 102.0873,23.1812 C102.0873,23.1812 102.0873,19.8408 100.1084,17.8612 C100.1084,17.8612 104.0662,19.7176 106.1704,25.4079" id="路径" fill="#FBE4D3"></path>
                            <path d="M156.8847,27.1572 L173.4796,0.6328 C173.4796,0.6328 186.445,3.4321 185.8087,29.6562 L156.8847,27.1572 Z" id="路径" fill="#3C2A34"></path>
                            <path d="M163.6236,28.6244 L174.0977,8.1942 C174.0977,8.1942 183.7815,14.2016 183.2663,29.4364 L163.6236,28.6244 Z" id="路径" fill="#E76650"></path>
                            <path d="M168.8176,25.4079 C168.8176,25.4079 169.4735,17.3705 176.8599,15.8823 L174.0172,21.2016 C174.0172,21.2016 175.6237,20.2118 178.7149,20.6451 C178.7149,20.6451 175.1281,23.4836 174.8796,26.5489 C174.8796,26.5489 173.7666,23.4549 176.4889,21.2156 C176.4889,21.2156 173.5195,22.0682 172.9007,23.1812 C172.9007,23.1812 172.9007,19.8408 174.8796,17.8612 C174.8796,17.8612 170.9218,19.7176 168.8176,25.4079" id="路径" fill="#FBE4D3"></path>
                            <path d="M89.3277,29.6562 C89.3277,29.6562 56.5544,77.0952 62.797,89.9766 C69.0382,102.8594 137.2658,166.5552 137.2658,166.5552 C137.2658,166.5552 212.7244,92.7619 212.7244,77.0077 C212.7244,61.2528 185.8087,29.6562 185.8087,29.6562 C185.8087,29.6562 133.0665,18.8153 89.3277,29.6562" id="路径" fill="#FBE4D3"></path>
                            <path d="M68.5895,199.0359 C68.5895,199.0359 24.85798,161.4725 67.7957,66.6267 C82.992,33.0582 199.5833,41.7144 207.3491,60.0873 C246.0577,151.6725 212.7244,199.0359 212.7244,199.0359 L68.5895,199.0359 Z" id="路径" fill="#FBE4D3"></path>
                            <path d="M67.7894,66.6414 C67.7894,66.6414 56.2653,214.9091 226.0622,144.0908 C226.0622,144.0908 228.0243,175.6419 212.7251,199.0359 L62.797,199.0359 C62.797,199.0359 28.82026,145.0603 67.7894,66.6414" id="路径" fill="#EFCAC4"></path>
                            <polygon id="路径" fill="#3C2A34" points="137.0047 50.6072 137.0047 80.8241 130.6319 93.0286 138.8919 82.5986 146.3266 93.0286 140.0266 79.7139 138.8919 49.5355"></polygon>
                            <path d="M186.0908,130.2245 C186.0908,130.2245 190.1907,157.4804 179.1048,166.5552 C179.1048,166.5552 180.0526,159.3193 179.1048,151.6053 C179.1048,151.6053 172.2049,172.5451 151.2651,176.071 C151.2651,176.071 165.8125,180.4789 177.4955,158.6585 C177.4955,158.6585 178.3761,168.7973 177.4955,172.1034 C177.4955,172.1034 194.2465,161.7434 186.0908,130.2245" id="路径" fill="#FFFAEF"></path>
                            <path d="M178.6512,84.7707 C178.6512,84.7707 181.5205,112.1827 170.0356,120.7493 C170.0356,120.7493 171.3089,113.5638 170.709,105.8148 C170.709,105.8148 162.8739,126.4228 141.7962,129.0023 C141.7962,129.0023 156.1308,134.0605 168.7833,112.7882 C168.7833,112.7882 169.2075,122.9578 168.1785,126.2205 C168.1785,126.2205 185.3796,116.6249 178.6512,84.7707" id="路径" fill="#FFFAEF"></path>
                            <path d="M85.3258,130.2245 C85.3258,130.2245 81.2252,157.4804 92.3111,166.5552 C92.3111,166.5552 91.364,159.3193 92.3111,151.6053 C92.3111,151.6053 99.2117,172.5451 120.1501,176.071 C120.1501,176.071 105.6034,180.4789 93.9218,158.6585 C93.9218,158.6585 93.0405,168.7973 93.9218,172.1034 C93.9218,172.1034 77.1701,161.7434 85.3258,130.2245" id="路径" fill="#FFFAEF"></path>
                            <path d="M73.4328,86.5389 C73.4328,86.5389 56.0707,113.0654 60.8216,127.0808 C60.8216,127.0808 63.7077,119.1911 68.4425,111.594 C68.4425,111.594 63.6041,136.157 79.5158,148.5239 C79.5158,148.5239 64.9656,147.0357 66.2088,119.5705 C66.2088,119.5705 60.2938,129.7065 59.3551,133.497 C59.3551,133.497 50.4679,115.794 73.4328,86.5389" id="路径" fill="#FFFAEF"></path>
                            <path d="M98.987,97.7697 C98.987,97.7697 109.6074,120.911 131.6133,129.976 L118.783,113.8732 C118.783,113.8732 137.3848,126.6356 150.5112,120.4329 C150.5112,120.4329 139.4974,129.0219 126.6384,119.7175 L134.2943,132.839 C134.2943,132.839 108.2809,126.6503 98.987,97.7697" id="路径" fill="#FFFAEF"></path>
                            <path d="M66.0961,198.9701 C66.0961,198.9701 75.481,148.5008 46.6158,138.5153 C24.77853,130.9609 14.17633,105.0189 35.0861,89.145 C35.0861,89.145 -10.63377,94.2242 11.23283,150.1752 L2.08943,138.5153 C2.08943,138.5153 -17.09267,201.3417 66.0961,198.9701" id="路径" fill="#EFCAC4"></path>
                            <path d="M18.87403,117.5307 C18.87403,117.5307 14.77413,144.7866 25.86003,153.8614 C25.86003,153.8614 24.91293,146.6255 25.86003,138.9115 C25.86003,138.9115 32.7607,159.8513 53.6991,163.3772 C53.6991,163.3772 39.1524,167.7851 27.47003,145.9647 C27.47003,145.9647 26.58873,156.1035 27.47003,159.4096 C27.47003,159.4096 10.71903,149.0496 18.87403,117.5307" id="路径" fill="#FFFAEF"></path>
                            <path d="M157.9522,76.4918 C157.9522,76.4918 145.8443,46.4233 135.8826,48.9496 C126.4249,51.3485 117.0365,77.4459 117.0365,77.4459 C117.0365,77.4459 126.5075,44.6754 137.9483,45.3565 C149.3905,46.0383 157.9522,76.4918 157.9522,76.4918" id="路径" fill="#3C2A34"></path>
                            <polygon id="路径" fill="#3C2A34" points="131.2633 31.2907 130.7852 44.5305 93.5697 44.5305 129.1311 42.6216"></polygon>
                            <polygon id="路径" fill="#3C2A34" points="143.7268 31.2907 144.2028 44.5305 181.4183 44.5305 145.8576 42.6216"></polygon>
                            <path d="M131.2416,48.6227 C131.2416,48.6227 135.0279,58.5928 138.0134,58.1784 C141.7955,57.6534 144.3932,48.8292 144.3932,48.8292 C144.3932,48.8292 138.4789,40.3039 131.2416,48.6227" id="路径" fill="#E76650"></path>
                            <path d="M136.934,55.9937 C136.934,55.9937 136.6596,50.1655 134.2936,50.1668997 C134.2936,50.1668997 136.43,52.6477 136.934,55.9937" id="路径" fill="#FBE4D3"></path>
                            <path d="M138.4789,55.9937 C138.4789,55.9937 138.754,50.1655 141.12,50.1668997 C141.12,50.1668997 138.9822,52.6477 138.4789,55.9937" id="路径" fill="#FBE4D3"></path>
                            <path d="M91.6573,46.4226 L127.2187,46.4226 C127.2187,46.4226 122.9284,76.02 109.438,72.1056 C95.9483,68.1919 91.6573,46.4226 91.6573,46.4226" id="路径" fill="#707173"></path>
                            <path d="M91.6573,46.5031 L127.2187,46.5031 C127.2187,46.5031 122.9284,68.453 109.4373,65.1462 C95.9476,61.838 91.6573,46.5031 91.6573,46.5031" id="路径" fill="#FAB217"></path>
                            <path d="M100.464,46.5031 L122.1927,46.5031 C122.1927,46.5031 119.8141,57.6968 111.3287,57.8942 C102.4303,58.1021 100.464,46.5031 100.464,46.5031" id="路径" fill="#3C2A34"></path>
                            <path d="M122.6197,50.3937 C122.6197,51.4052 121.8,52.2249 120.7878,52.2249 C119.7763,52.2249 118.9566,51.4052 118.9566,50.3937 C118.9566,49.3815 119.7763,48.5618 120.7878,48.5618 C121.8,48.5618 122.6197,49.3815 122.6197,50.3937" id="路径" fill="#FBE4D3"></path>
                            <path d="M183.3307,46.4226 L147.7686,46.4226 C147.7686,46.4226 152.5839,75.7862 166.0743,71.8718 C179.5647,67.9581 183.3307,46.4226 183.3307,46.4226" id="路径" fill="#707173"></path>
                            <path d="M183.3307,46.5031 L147.7686,46.5031 C147.7686,46.5031 152.0596,68.453 165.55,65.1462 C179.0404,61.838 183.3307,46.5031 183.3307,46.5031" id="路径" fill="#FAB217"></path>
                            <path d="M174.5233,46.5031 L152.7946,46.5031 C152.7946,46.5031 155.1732,57.6968 163.6586,57.8942 C172.5577,58.1021 174.5233,46.5031 174.5233,46.5031" id="路径" fill="#3C2A34"></path>
                            <path d="M170.3016,50.3937 C170.3016,51.4052 171.122,52.2249 172.1335,52.2249 C173.145,52.2249 173.9647,51.4052 173.9647,50.3937 C173.9647,49.3815 173.145,48.5618 172.1335,48.5618 C171.122,48.5618 170.3016,49.3815 170.3016,50.3937" id="路径" fill="#FBE4D3"></path>
                            <path d="M256.3666,103.0554 C256.3666,103.0554 252.0798,139.4141 217.8428,141.0717 L216.4519,84.7707 C216.4519,84.7707 229.6896,114.093 242.4478,87.5021 C242.4478,87.5021 256.1958,93.6341 256.3666,103.0554" id="路径" fill="#F8E2D2"></path>
                            <polygon id="路径" fill="#3C2A34" points="239.9859 73.7646 242.4485 121.1182 237.0613 121.1182 235.4037 73.7646"></polygon>
                            <path d="M242.361,85.5729 C242.361,85.5729 227.2865,86.1882 229.6889,97.8901 C232.0927,109.5927 240.289,120.8081 249.4051,115.2053 C258.5226,109.6039 261.009,87.2354 242.361,85.5729" id="路径" fill="#F8E2D2"></path>
                            <polygon id="路径" fill="#E76650" points="221.9546 77.4599 205.1693 48.3868 221.9546 19.313 255.5252 19.313 272.3112 48.3868 255.5252 77.4599"></polygon>
                            <path d="M219.2232,29.8508 C219.2232,27.4414 219.4654,25.088 219.9148,22.8109 L205.1504,48.3868 L221.9357,77.4606 L255.5063,77.4606 L262.6421,65.0993 C260.2516,65.5998 257.775,65.8651 255.2368,65.8651 C235.347,65.8651 219.2232,49.742 219.2232,29.8508" id="路径" fill="#EE3A3D"></path>
                            <path d="M224.5327,72.5396 L252.9471,72.5396 L267.1417,48.3868 L252.9471,24.2333 L224.5327,24.2333 L210.3402,48.3868 L224.5327,72.5396 Z M254.0139,74.4044 L223.4652,74.4044 L208.1772,48.3868 L223.4652,22.3685 L254.0139,22.3685 L269.3054,48.3868 L254.0139,74.4044 Z" id="形状" fill="#FFF9EF"></path>
                        </g>
                    </g>
                </g>
                <g id="Clipped">
                    <mask id="mask-8" fill="white">
                        <use xlink:href="#path-7"></use>
                    </mask>
                    <g id="Mask_4"></g>
                    <g id="编组" mask="url(#mask-8)" fill="#FFFAEF">
                        <g transform="translate(93.100000, 176.400000)" id="路径">
                            <path d="M8.4448,0.3031 C8.4448,0.3031 30.2092,21.6076 79.0923,17.6715 C79.0923,17.6715 33.0253,25.7229 8.4448,0.3031"></path>
                            <path d="M0.5593,11.4534 C0.5593,11.4534 30.7363,31.2459 78.7143,19.0841 C78.7143,19.0841 28.2058,33.5013 0.5593,11.4534"></path>
                            <path d="M8.4448,27.4036 C8.4448,27.4036 36.8571,42.0938 79.1098,20.426 C79.1098,20.426 38.787,45.5609 8.4448,27.4036"></path>
                            <path d="M155.9453,0.3031 C155.9453,0.3031 134.1795,21.6076 85.2971,17.6715 C85.2971,17.6715 131.3634,25.7229 155.9453,0.3031"></path>
                            <path d="M163.8287,11.4534 C163.8287,11.4534 133.6524,31.2459 85.6744,19.0841 C85.6744,19.0841 136.1829,33.5013 163.8287,11.4534"></path>
                            <path d="M155.9453,27.4036 C155.9453,27.4036 127.5309,42.0938 85.2782,20.426 C85.2782,20.426 125.601,45.5609 155.9453,27.4036"></path>
                            <path d="M150.0464,48.762 C150.0464,48.762 166.1436,71.1354 160.426,84.2723 C160.426,84.2723 157.9655,77.4025 153.5968,70.973 C153.5968,70.973 157.0247,92.7528 140.0063,105.4536 C140.0063,105.4536 154.9611,102.7306 155.3881,77.9828 C155.3881,77.9828 160.8019,86.6005 161.5278,89.943 C161.5278,89.943 171.6988,73.0758 150.0464,48.762"></path>
                        </g>
                    </g>
                </g>
                <g id="Clipped">
                    <mask id="mask-10" fill="white">
                        <use xlink:href="#path-9"></use>
                    </mask>
                    <g id="Mask_5"></g>
                </g>
            </g>
            <text id="健康码" font-family="DFWaWaSC-W5, Wawati SC" font-size="14" font-weight="normal" fill="#FFFFFF">
                <tspan x="256" y="184">健康码</tspan>
            </text>
            <text id="找不到你要访问的网页" font-family="DFWaWaSC-W5, Wawati SC" font-size="24" font-weight="normal" fill="#FA6400">
                <tspan x="49" y="119">找不到你要访问的网页</tspan>
            </text>
            <text font-family="DFWaWaSC-W5, Wawati SC" font-size="50" font-weight="normal" fill="#FA6400">
                <tspan x="122" y="86">404</tspan>
            </text>
        </g>
    </g>
</svg>