<svg id="Layer_1" data-name="Layer 1" xmlns="http://www.w3.org/2000/svg" xmlns:xlink="http://www.w3.org/1999/xlink" viewBox="0 0 344.84 316.91" width="406" height="306" class="illustration"><defs><linearGradient id="linear-gradient" x1="94.19" y1="772.47" x2="445.97" y2="602.82" gradientTransform="translate(-37.67 -431.29)" gradientUnits="userSpaceOnUse"><stop offset="0.01"></stop><stop offset="0.13" stop-opacity="0.69"></stop><stop offset="0.25" stop-opacity="0.32"></stop><stop offset="1" stop-opacity="0"></stop></linearGradient><linearGradient id="linear-gradient-2" x1="184.6" y1="705.84" x2="191.13" y2="721.97" xlink:href="#linear-gradient"></linearGradient><linearGradient id="linear-gradient-3" x1="208.67" y1="709.75" x2="215.21" y2="725.88" xlink:href="#linear-gradient"></linearGradient><linearGradient id="linear-gradient-4" x1="169.07" y1="546.98" x2="233.57" y2="589.18" xlink:href="#linear-gradient"></linearGradient><linearGradient id="linear-gradient-5" x1="282.3" y1="575.63" x2="108.05" y2="649.63" xlink:href="#linear-gradient"></linearGradient><linearGradient id="linear-gradient-6" x1="202.47" y1="503.24" x2="170.58" y2="516.69" xlink:href="#linear-gradient"></linearGradient></defs><title>12</title><path d="M344,204.32a6.67,6.67,0,0,1-.13,1A120.94,120.94,0,0,1,336,235.71a112.52,112.52,0,0,1-9.12,17.78,109.08,109.08,0,0,1-33.78,34c-34.31,21.92-76.47,27.42-117.16,29-32.15,1.23-65,.24-95.46-10-20.72-7-40.37-18.81-54.94-34.89A96.23,96.23,0,0,1,8.71,246h0A95.83,95.83,0,0,1,3.9,232.45a103.11,103.11,0,0,1-2.3-10.57A119.07,119.07,0,0,1,0,201.4c0-3.44.16-6.89.43-10.31.87-11,3.07-22.17,8.78-31.62,10-16.5,24-29.65,32.87-47,9.84-19.34,11.24-41.35,20.43-60.84,10.6-22.35,29.85-33.27,51.35-41.48,3.08-1.18,6.21-2.3,9.36-3.39,24.91-8.61,56.2-9.61,80.8.55,2.38,1,4.67,2.07,6.87,3.24a79.81,79.81,0,0,1,7.16,4.3,99.36,99.36,0,0,1,12,9.55c2.77,2.54,5.41,5.22,8,8,11,11.84,20.64,25.27,32.11,36.91,10.1,10.26,22.42,18,33.3,27.47A119.48,119.48,0,0,1,339,151.55,127.71,127.71,0,0,1,344,204.32Z" transform="translate(0 0)" fill="#68e1fd" opacity="0.18" style="isolation: isolate;"></path><path d="M113.83,26.79a22.93,22.93,0,0,0-4.3,4.5A112.57,112.57,0,0,1,162.15,8.42c-8.74,5.13-18.07,10.93-21.78,20.36a7.37,7.37,0,0,0,3.19-2,97.82,97.82,0,0,1,27-17.12l-5.38,8.21,12.93-9.26A8.79,8.79,0,0,0,175,14.4a58.93,58.93,0,0,1,11-6.69l-1.63,4.73A40.13,40.13,0,0,1,194.56,7.5c-.61.43.31,1.27,1,1.43,5.26,1.1,10.62,2.21,16,1.7-1,.1-3.48-1.78-4.44-2.23q-2.67-1.23-5.42-2.27A80,80,0,0,0,191.33,3a56.33,56.33,0,0,0-19.7-1.33A108.73,108.73,0,0,0,132.9,13.78,105.83,105.83,0,0,0,113.83,26.79Z" transform="translate(0 0)" fill="#68e1fd" opacity="0.39" style="isolation: isolate;"></path><path d="M344,204.32a6.67,6.67,0,0,1-.13,1,104.15,104.15,0,0,0-33.41-3c-11.85.87-23.48,3.76-35.32,4.72-18.27,1.48-37.43-1.53-54.44,5.33-10,4-19.45,11.5-30.2,10.5-5.69-.54-10.88-3.44-16.48-4.61-16-3.33-31.44,7.82-47.75,9.16-5.33.44-10.68-.19-16-.7A362,362,0,0,0,6.83,231.87l-2.94.56a103.11,103.11,0,0,1-2.3-10.57A119.07,119.07,0,0,1,0,201.38l1-.29c9.39-2.69,18.28-7,27.7-9.94a170.46,170.46,0,0,1,62.63-7.32c5.89.41,11.84,1.14,17.67.21,8.06-1.29,15.28-5.62,23.06-8.08,22.87-7.23,47.87,2.26,71.54-1.59,12.66-2.06,24.56-7.89,37.33-9.08,10.45-1,21,1.22,31.45,1,9.89-.27,19.58-2.72,29.17-5.16l37.54-9.55A127.8,127.8,0,0,1,344,204.32Z" transform="translate(0 0)" fill="#68e1fd" opacity="0.39" style="isolation: isolate;"></path><path d="M344,204.32a121.44,121.44,0,0,1-8,31.42,118.08,118.08,0,0,1-24.2-5.38c-7-2.35-15.31-5.2-21.25-.79-1.8,1.33-3.13,3.2-4.89,4.56-7.17,5.57-17.64.87-24.67-4.89s-14.5-13-23.54-12.1c-10.69,1-17.07,12.75-27.06,16.7-11,4.35-23-1.59-34.65-3.71a53.75,53.75,0,0,0-36.86,6.68c-3.34,2-6.52,4.4-10.24,5.56-13,4.08-25.33-8-38.78-10.41-11.46-2.05-22.8,3.11-33.95,6.49a113.9,113.9,0,0,1-25.23,4.64c-5.83.41-16.24-2.08-21.09,2.09a6.51,6.51,0,0,0-.83.83h0a99.6,99.6,0,0,1-7.11-24.13,54.7,54.7,0,0,1,22.71-14.17c21.71-6.88,45,.31,67.25,5.18,5.57,1.21,11.26,2.29,17,1.83,6.52-.52,12.7-3,18.86-5.24,11.58-4.15,23.85-7.31,36.08-6,17.44,1.8,34.83,12.42,51.44,6.82,6.38-2.16,11.87-6.57,18.38-8.31,8.23-2.2,16.91.14,25.1,2.47,19.63,5.6,41-14.92,61.11-11.29,5.88,1.06,11.24,4,16.48,6.83Z" transform="translate(0 0)" fill="#fff"></path><path d="M336,235.71a112.52,112.52,0,0,1-9.12,17.78,109.08,109.08,0,0,1-33.78,34c-34.31,21.92-76.47,27.42-117.16,29-32.15,1.23-65,.24-95.46-10-20.72-7-40.37-18.81-54.94-34.89A96.23,96.23,0,0,1,8.71,246a6.51,6.51,0,0,1,.83-.83c4.85-4.17,15.26-1.68,21.09-2.09a113.9,113.9,0,0,0,25.23-4.64c11.15-3.38,22.49-8.54,34-6.49,13.45,2.4,25.75,14.49,38.78,10.41,3.72-1.16,6.9-3.56,10.24-5.56a53.75,53.75,0,0,1,36.86-6.68c11.59,2.12,23.59,8.06,34.59,3.71,10-4,16.37-15.68,27.06-16.7,9-.85,16.51,6.35,23.54,12.1s17.5,10.46,24.67,4.89c1.76-1.36,3.09-3.23,4.89-4.56,5.94-4.41,14.24-1.56,21.25.79A118,118,0,0,0,336,235.71Z" transform="translate(0 0)" fill="#68e1fd" opacity="0.18" style="isolation: isolate;"></path><path d="M200.33,286.41c-4.08.28-8.31.27-12,1.95-2.59,1.16-5.16,3.16-7.93,2.56a14.2,14.2,0,0,1-3.23-1.45c-4.61-2.27-10.07-1.46-15.13-.6-1.83-1.71-1.06-4.76.17-6.94s2.84-4.5,2.3-6.94a18.72,18.72,0,0,1-17.25,7.91,58.53,58.53,0,0,1,7-11.54c.94-1.19,4.32-4.88,5.86-5.14,3.88-.65,3.93,3.33,7,4.33a5.5,5.5,0,0,0,2.79-.08,204.91,204.91,0,0,0,31.74-9.18c4.68-1.77,10-3.71,14.48-1.51,1,.49,1.9,1.18,2.94,1.59,2.87,1.14,6.09.06,9-.93a132.79,132.79,0,0,1,28.54-6.2c2.93-.31,6.32-.35,8.3,1.82a6.28,6.28,0,0,1,.55,7,12.65,12.65,0,0,1-5.42,5c-7.35,4-16.08,4.41-24.17,6.61-7,1.91-13.28,5.31-19.71,8.64C211,286,206.11,286,200.33,286.41Z" transform="translate(0 0)" fill="url(#linear-gradient)"></path><path d="M160.54,275.88c-1.55,1.24-3.15,2.43-4.78,3.57-3.06,2.13-6.32,4.11-10,4.89a29.54,29.54,0,0,1-6.44.44,14.4,14.4,0,0,1-3.46-.33c-1.41-.35-2.87-1.33-3-2.78A2.15,2.15,0,0,1,133,281a4.6,4.6,0,0,1,2.22-2.51c3-1.88,6.33-1.86,9.5-3.34a61,61,0,0,1,12.63-4.61,6.91,6.91,0,0,1,3.1-.15,2.78,2.78,0,0,1,2.09,1.86.61.61,0,0,1,0,.18C162.84,273.83,161.64,275,160.54,275.88Z" transform="translate(0 0)" fill="#68e1fd"></path><path d="M162.56,272.25a5.36,5.36,0,0,1-2,2.53c-1.55,1.24-3.15,2.43-4.78,3.57-3.06,2.13-6.32,4.11-10,4.88a29.09,29.09,0,0,1-6.45.48,15.49,15.49,0,0,1-3.46-.33A3.75,3.75,0,0,1,133,281a4.6,4.6,0,0,1,2.22-2.51c3-1.88,6.33-1.86,9.5-3.34a60.84,60.84,0,0,1,12.62-4.64,6.91,6.91,0,0,1,3.1-.15A2.74,2.74,0,0,1,162.56,272.25Z" transform="translate(0 0)" fill="url(#linear-gradient-2)"></path><path d="M184.6,279.8c-1.55,1.24-3.15,2.43-4.78,3.57-3.06,2.13-6.32,4.11-10,4.89a29.54,29.54,0,0,1-6.44.44,14.4,14.4,0,0,1-3.46-.33c-1.41-.35-2.87-1.33-3-2.78a2.15,2.15,0,0,1,.07-.67,4.54,4.54,0,0,1,2.34-2.51c3-1.88,6.33-1.86,9.5-3.34a61,61,0,0,1,12.63-4.61,7.06,7.06,0,0,1,3.1-.15,2.78,2.78,0,0,1,2.09,1.86.61.61,0,0,1,0,.18C186.9,277.71,185.7,278.92,184.6,279.8Z" transform="translate(0 0)" fill="#68e1fd"></path><path d="M186.62,276.17a5.36,5.36,0,0,1-2,2.53c-1.55,1.24-3.15,2.43-4.78,3.57-3.06,2.13-6.32,4.11-10,4.88a28.93,28.93,0,0,1-6.44.45,15.49,15.49,0,0,1-3.46-.33,3.75,3.75,0,0,1-2.88-2.35,4.58,4.58,0,0,1,2.27-2.51c3-1.88,6.33-1.86,9.5-3.34a61,61,0,0,1,12.63-4.61,7.06,7.06,0,0,1,3.1-.15A2.74,2.74,0,0,1,186.62,276.17Z" transform="translate(0 0)" fill="url(#linear-gradient-3)"></path><path d="M161.33,268.81a16.7,16.7,0,0,1,.33,3.38,4.14,4.14,0,0,1-1.34,3.08c-1,.79-2.26.93-3.4,1.4a11.45,11.45,0,0,0-2.57,1.67,37.05,37.05,0,0,1-5,3.72,9.36,9.36,0,0,1-6,1.32c-.66-.15-1.33-.27-2-.36-1-.07-2.08.28-3.12.29a2.4,2.4,0,0,1-2.49-1.49,2,2,0,0,0-.24-.83c-.31-.4-1-.29-1.4-.54a1.3,1.3,0,0,1-.2-1.81l.08-.09a4.13,4.13,0,0,1,1.89-1c5-1.8,11.47-5.7,13.93-10.68,3.26-6.59,2.74-14,1.67-21a218.05,218.05,0,0,1-1.81-49.76,15.07,15.07,0,0,1,.61-3.65,7.65,7.65,0,0,1,14.45-.11c1.08,3,.2,6.31-.51,9.41-1.23,5.37-1.92,11.08-.19,16.3.79,2.42,2.08,4.66,2.71,7.12,1,3.93.25,8.08-.51,12.07l-3.77,19.46c-.56,2.94-1.51,6-1.48,9A21.49,21.49,0,0,0,161.33,268.81Z" transform="translate(0 0)" fill="#ffb79c"></path><path d="M185.13,271.52a18.26,18.26,0,0,1,.33,3.38,4.11,4.11,0,0,1-1.35,3.08c-1,.79-2.26.93-3.4,1.4a11.17,11.17,0,0,0-2.56,1.67,37.05,37.05,0,0,1-5,3.72,9.36,9.36,0,0,1-6,1.32c-.66-.15-1.33-.27-2-.36-1-.07-2.07.28-3.12.29a2.41,2.41,0,0,1-2.49-1.49,2.36,2.36,0,0,0-.21-.82c-.31-.4-1-.29-1.4-.54a1.29,1.29,0,0,1-.21-1.81l.08-.09a4.16,4.16,0,0,1,1.9-1c5.05-1.8,11.47-5.7,13.93-10.68,3.25-6.59,2.73-14,1.66-21a218,218,0,0,1-1.8-49.76,14.58,14.58,0,0,1,.6-3.65,7.66,7.66,0,0,1,14.46-.11c1.07,3,.2,6.31-.52,9.41-1.22,5.37-1.91,11.08-.19,16.31.8,2.41,2.09,4.65,2.72,7.11,1,3.93.25,8.08-.52,12.07l-3.71,19.48c-.56,2.94-1.52,6.05-1.48,9A21.11,21.11,0,0,0,185.13,271.52Z" transform="translate(0 0)" fill="#ffb79c"></path><path d="M139.54,127.82q.9,2.75,2,5.41a2,2,0,0,0,.69,1,2,2,0,0,0,1.66-.07c2-.71,4.49-1.46,6.06-3,.71-.67,4.38-3.49,4.38-4V106c0-1.34.66-4.85,0-6-.44-.79-1.06-.62-1.89-.14a93.53,93.53,0,0,0-15.31,11.23,2.18,2.18,0,0,0-.88,2.45A78.66,78.66,0,0,0,139.54,127.82Z" transform="translate(0 0)" fill="#68e1fd"></path><path d="M151.44,122.35a12.85,12.85,0,0,0,.8-4.47c-1.24,2.07-2.61,4.25-4.8,5.23-1.28.57-2.74.68-4,1.36-2.29,1.28-3.12,4.28-2.71,6.87.24,1.5,1.11,3.18,2.63,3.32a3.77,3.77,0,0,0,1.75-.39c2.34-1,3.94-1.56,4.41-4C150.09,127.63,150.66,125,151.44,122.35Z" transform="translate(0 0)" fill="url(#linear-gradient-4)"></path><path d="M194.39,185.07l-.45,24.84a54,54,0,0,1-24.79,2.4,6.48,6.48,0,0,1-2.84-.89c-1.64-1.14-1.91-3.31-1.86-5.37a5.6,5.6,0,0,1-4.46,4.12c-2.45.48-5-.29-7.33-1.09q-4.74-1.62-9.38-3.47a2,2,0,0,1-1.65-2.3,2,2,0,0,1,.17-.53,193.94,193.94,0,0,0,4-21.91c.51-4.12-.73-16.35,3.72-17.56l.45-.09c2.62-.38,6.86,1.42,9.27,1.89,3.62.71,7.26,1.32,10.93,1.72a80.56,80.56,0,0,0,8.07.51,57.12,57.12,0,0,0,14.39-1.53V166C194.62,172.1,194.51,178.71,194.39,185.07Z" transform="translate(0 0)" fill="#473f47"></path><path d="M197.33,136.71v.81c-.06,1-.13,2-.2,3-.57,7.56-1.21,15.41-3.36,22.71a22.89,22.89,0,0,1-1,2.77,6.34,6.34,0,0,1-2.56,3.06c-3.29,1.92-7.75,1.87-12,1.39-2.15-.24-4.23-.59-6-.85-7.15-1-14.49-2.06-20.83-5.53a11.18,11.18,0,0,1-1.32-.82,4.53,4.53,0,0,1-1.69-2.08c-.56-1.55.11-3.24.6-4.82,2.14-7,.44-14.48.47-21.67,0-1.31.17-2.61.17-3.92a5.55,5.55,0,0,0-.08-1c-.18-1.82-.65-3.64-.84-5.46a40.79,40.79,0,0,1,.26-11.2,43.34,43.34,0,0,1,3.51-11.39c1.56-3.13,4.38-4.45,7.55-6a26.36,26.36,0,0,1,8.49-2.89,21.78,21.78,0,0,1,6.29.35c6.39,1.17,14.79,4.5,19.14,9.53,3.27,3.78,3.66,9.18,3.76,14.19Q197.87,126.78,197.33,136.71Z" transform="translate(0 0)" fill="#68e1fd"></path><path d="M197.33,136.71v.81c-.06,1-.13,2-.2,3-.57,7.56-1.21,15.41-3.36,22.71a22.89,22.89,0,0,1-1,2.77c1.87,6.13,1.76,12.69,1.64,19.1L194,209.94a54.75,54.75,0,0,1-13.63,2.77c5.21-12.59,3.92-27.12,2.49-40.81-1.33,1.4-3.91.35-4.61-1.44a2.09,2.09,0,0,1-.08-.23,4.63,4.63,0,0,1,.15-2.85,9.17,9.17,0,0,1,1.52-2.71,22.74,22.74,0,0,1,6.24-5.23,5.47,5.47,0,0,0,1.84-1.47,4.68,4.68,0,0,0,.62-1.56,37.92,37.92,0,0,0-.26-19.78c-1.08-3.78-2.78-7.62-2.18-11.49-.35,4,7,9.15,9.7,10.76C196.33,136.17,196.82,136.44,197.33,136.71Z" transform="translate(0 0)" fill="url(#linear-gradient-5)"></path><path d="M162.49,83.88a4.57,4.57,0,0,0,2.42,2.22c1.23.5,2.61.57,3.61,1.48a6.31,6.31,0,0,1,1.62,3.49c.29,1.34.34,2.5-1.24,3-1,.35-2.19.35-3,1a2.84,2.84,0,0,0-.83,2.59,7.06,7.06,0,0,0,1.13,2.59,8.77,8.77,0,0,0,2.49,2.69c2,1.25,4.55,1,6.79.34,3.36-1,6.68-3.45,7.19-6.93-3.84-1.73-5.12-6.85-3.39-10.47,1.5-3.13,3.12-6.26,3.71-9.72a8,8,0,0,0-.4-4.78,8.2,8.2,0,0,0-5.26-3.82,15.38,15.38,0,0,0-8.74-.09c-1.07.37-1.39,1.1-1.89,2q-1.14,2.22-2.09,4.53c-.71,1.75-1.33,3.53-1.89,5.35A6.27,6.27,0,0,0,162.49,83.88Z" transform="translate(0 0)" fill="#ffb79c"></path><path d="M170.17,68.62c1.6,1.43,4.36.48,6.09,1.75s1.58,3.75,1.59,5.56c0,.33-.56,4-1,3.77.7.5,1.24-.87,2-1.26s1.89.75,1.71,1.75a5.94,5.94,0,0,1-1.6,2.52,8.55,8.55,0,0,0-1.9,5.33c0,.45.17,1,.62,1.06s1-.63,1.31-.87c1.85-1.25,4.08-1.77,5.88-3.09a5.46,5.46,0,0,0,2.35-3.59,11.2,11.2,0,0,1,.29-3,8.27,8.27,0,0,1,1.33-1.78,2,2,0,0,0,.44-2c-.15-.3-.42-.53-.57-.82a3,3,0,0,1,0-2,6.67,6.67,0,0,0-1-5.38c-.89-1.15-2.23-1.85-3.26-2.88s-1.71-2.69-.91-3.91c.31-.46.83-.9.72-1.45s-.49-.65-.87-.81a5.71,5.71,0,0,0-5.3.59c.6-.68-.22-1.83-1.13-1.87a3.75,3.75,0,0,0-2.38,1.18,1.43,1.43,0,0,0-1.25-1.17,3.46,3.46,0,0,0-1.79.31A10,10,0,0,0,167,59.83a6.38,6.38,0,0,0-1.14,5.37,3,3,0,0,0,1.79,2.15,9.12,9.12,0,0,1,1.54.38A6.85,6.85,0,0,1,170.17,68.62Z" transform="translate(0 0)" fill="#473f47"></path><path d="M167.65,86.94l.46.14a.56.56,0,0,1,.36.17.54.54,0,0,1,.05.33,6.31,6.31,0,0,1,1.62,3.49c.29,1.36.58,2.7.88,4a33.14,33.14,0,0,0,3.28-8.24A32.14,32.14,0,0,1,167.65,86.94Z" transform="translate(0 0)" fill="#e2937a"></path><path d="M212.64,120.62a2,2,0,0,1,.53,1.07,2,2,0,0,1-.42,1.07A81.5,81.5,0,0,1,199.66,138a1.77,1.77,0,0,1-2.46.48,1.81,1.81,0,0,1-.33-.29c-6.15-4.56-12.47-10-14.12-17.46-1.17-5.3-.61-24.9,8.78-20.8,4.15,1.82,7.83,6.23,11,9.38A140.42,140.42,0,0,1,212.64,120.62Z" transform="translate(0 0)" fill="#68e1fd"></path><rect x="152.7" y="82.43" width="1.96" height="9.64" fill="#7f5e54"></rect><path d="M154.57,68.76h0a3.58,3.58,0,0,1,3.58,3.58h0V82.71a1.36,1.36,0,0,1-1.36,1.36h-4.46A1.36,1.36,0,0,1,151,82.71V72.34a3.58,3.58,0,0,1,3.58-3.58Z" transform="translate(0 0)" fill="#68e1fd"></path><path d="M153.33,68.76h0a3.58,3.58,0,0,1,3.58,3.58h0V82.71a1.36,1.36,0,0,1-1.36,1.36h-4.42a1.36,1.36,0,0,1-1.37-1.35h0V72.34A3.59,3.59,0,0,1,153.33,68.76Z" transform="translate(0 0)" fill="#68e1fd"></path><path d="M153.33,68.76h0a3.58,3.58,0,0,1,3.58,3.58h0V82.71a1.36,1.36,0,0,1-1.36,1.36h-4.42a1.36,1.36,0,0,1-1.37-1.35h0V72.34A3.59,3.59,0,0,1,153.33,68.76Z" transform="translate(0 0)" fill="url(#linear-gradient-6)"></path><path d="M219.23,136.22c1.45,2.5,3,5.22,2.66,8.09-.38,3.6-3.4,6.25-6.21,8.53L194.47,170a3.4,3.4,0,0,1-.77.53,4.86,4.86,0,0,1-2,.28,11.77,11.77,0,0,0-8,3.5,9.29,9.29,0,0,1,6.41-14.78,14.1,14.1,0,0,0,3.23-.43,8.13,8.13,0,0,0,2.47-1.66l11.63-10.09c.65-.56,1.36-1.28,1.2-2.13a2.63,2.63,0,0,0-.95-1.32,32.57,32.57,0,0,1-6.71-8.72,5.39,5.39,0,0,1-.76-2.34,5.07,5.07,0,0,1,1.11-2.86c1.59-2.36,6.14-8.31,9.56-7.11C214.08,124,217.55,133.33,219.23,136.22Z" transform="translate(0 0)" fill="#ffb79c"></path><path d="M149.09,88.25a7.58,7.58,0,0,1,6.52-1.82,4.39,4.39,0,0,1,2.53,1.32,5.67,5.67,0,0,1,.92,4.14,27.67,27.67,0,0,1-.67,4.44A8.26,8.26,0,0,1,157,99.68a3.48,3.48,0,0,1-3.21,1.37l-7.84,21a53.58,53.58,0,0,1-4.31,9.59,9.37,9.37,0,0,1-2.82,3.15,4.12,4.12,0,0,1-4.06.34,4.57,4.57,0,0,1-1.67-1.71c-1.79-3-1.3-6.93.08-10.17s3.57-6.06,5.18-9.19c2.25-4.34,3.35-9.14,5.25-13.63.83-2,2.47-3.89,3.05-5.89C147.33,92.1,147,90.15,149.09,88.25Z" transform="translate(0 0)" fill="#ffb79c"></path><path d="M164.79,281.27a11.35,11.35,0,0,1,6.75,1.19,7.38,7.38,0,0,1,1.7,1.35,1.5,1.5,0,0,0,1,.66c.66,0,1-.8.92-1.46a3.19,3.19,0,0,0-1.7-2.18,7.55,7.55,0,0,0-2.76-.74,21.49,21.49,0,0,0-5.55.12,4.61,4.61,0,0,0-.07-1.57,1.32,1.32,0,0,0-1.23-1.11,1.46,1.46,0,0,0-1.33,1.28,1.39,1.39,0,0,1-.09.57,2.83,2.83,0,0,1-1,1.29l-1,.93a5.42,5.42,0,0,0-1.69,2.7c0,.3,0,.67.27.78a.18.18,0,0,0,.2,0,.23.23,0,0,0,.06-.16,4,4,0,0,1,1.66-2.54,6.08,6.08,0,0,1,2.91-1Z" transform="translate(0 0)" fill="#68e1fd"></path><path d="M140.72,277.35a11.44,11.44,0,0,1,6.75,1.19,7.76,7.76,0,0,1,1.71,1.36,1.6,1.6,0,0,0,1,.66c.66,0,1-.81.92-1.47a3.24,3.24,0,0,0-1.77-2.18,7.29,7.29,0,0,0-2.75-.73,21.48,21.48,0,0,0-5.55.11,4.88,4.88,0,0,0-.07-1.57,1.32,1.32,0,0,0-1.24-1.11,1.47,1.47,0,0,0-1.33,1.28,1.39,1.39,0,0,1-.08.57,2.83,2.83,0,0,1-1,1.29l-1,.93a5.42,5.42,0,0,0-1.69,2.7c0,.3,0,.67.27.78a.17.17,0,0,0,.19,0,.24.24,0,0,0,.07-.16,4,4,0,0,1,1.66-2.53,6,6,0,0,1,2.91-1Z" transform="translate(0 0)" fill="#68e1fd"></path><path d="M206,11.32h.57a41.69,41.69,0,0,0,4.31-.73,53.69,53.69,0,0,1,9.06,6l10.62,8.67-7-3.51a21.78,21.78,0,0,1,5,16.7,61.86,61.86,0,0,0-6.42-12.51c-2.74-3.82-6.46-7.09-11-8.46a37.33,37.33,0,0,1,8.37,22.68c-1.41-7.93-7.44-14.12-13.18-19.77-1.09-1.08-2.88-3.59-4.5-3.19,1.07,3.49,2.76,6.86,4,10.3,1.17,3.21,1.81,7.33,3.48,10.21a156.69,156.69,0,0,0-13-19.27,69.28,69.28,0,0,0,7.39,19.83L190,18.27a71,71,0,0,0,6.49,22.12,45.23,45.23,0,0,1-12.2-18A60.29,60.29,0,0,0,190,45c-7.7-5.43-10.12-15.58-12-24.82a126.47,126.47,0,0,0-.06,27.23,49.71,49.71,0,0,1-6.11-24,120.85,120.85,0,0,0-4.28,27.77,86.76,86.76,0,0,1-1.78-28.19c-5.84,9.83-8.19,21.29-10.45,32.5a73,73,0,0,1,3.57-29.37,132.19,132.19,0,0,0-20,37.11c.34-11.6,6.89-22,13.23-31.69q-17.24,12.32-33.25,26.22c1.94-4,5.25-7.11,8.52-10.11q8.63-7.93,17.56-15.55a88.63,88.63,0,0,1,14.17-10.34,73.11,73.11,0,0,1,17.33-6.52c6.58-1.72,13.52-3.42,20.32-3.91C199.83,11.06,202.94,11.52,206,11.32Z" transform="translate(0 0)" fill="#68e1fd" opacity="0.39" style="isolation: isolate;"></path><path d="M212.68,28.93c.41.77.78,1.56,1.12,2.36C213.44,30.5,213.07,29.71,212.68,28.93Z" transform="translate(0 0)" fill="#68e1fd" opacity="0.39" style="isolation: isolate;"></path><path d="M246.62,57.62A157.93,157.93,0,0,1,231.9,45.25a42.21,42.21,0,0,0,6.31,19.46,31,31,0,0,1-10.88-14.77,67.27,67.27,0,0,0,12.76,27.19,48.07,48.07,0,0,1-16.36-17.34c-.85,9.8,2.54,19.41,5.87,28.66a67.07,67.07,0,0,1-14-22.62,74.68,74.68,0,0,0,1.47,33.57,62.75,62.75,0,0,1-7.74-37.18A55.91,55.91,0,0,1,227.59,26.6c.56-.49,1.45-1.35,2.45-2.2,2.77,2.54,5.41,5.22,8,8a32.62,32.62,0,0,0,8.65,14.87,140.18,140.18,0,0,0-11.33-9Q240.57,48.19,246.62,57.62Z" transform="translate(0 0)" fill="#68e1fd" opacity="0.39" style="isolation: isolate;"></path></svg>