<?xml version="1.0" encoding="UTF-8"?>
<svg width="591px" height="216px" viewBox="0 0 591 216" version="1.1" xmlns="http://www.w3.org/2000/svg" xmlns:xlink="http://www.w3.org/1999/xlink">
    <!-- Generator: Sketch 60.1 (88133) - https://sketch.com -->
    <title>编组</title>
    <desc>Created with Sketch.</desc>
    <g id="页面-1" stroke="none" stroke-width="1" fill="none" fill-rule="evenodd">
        <g id="编组">
            <g id="wave" fill="#01675D" fill-rule="nonzero">
                <path d="M0,0 C2.67421557,4.18109021 85.5634149,39.2122375 153.268814,55 C180.145198,61.2671216 204.588828,58.8355437 230.038841,64.2814509 C256.762973,70 265.383617,79 282.944616,94 C294.517436,106.152179 296.04181,107.793871 303,113 C306.920979,115.933683 312.041579,120.471973 322.948817,127.5 C333.121538,134.054744 369.441841,147 381.72092,149 C394,151 398,152.5 417.320942,152.367321 C436.641885,152.234643 446.200716,159.254873 460.027757,163.017608 C495.344342,172.628264 524.707406,186.430223 543,194.7 L591,216 L591,0 L543,0 C495,0 399,0 303,0" id="路径"></path>
            </g>
            <g id="dog" transform="translate(443.000000, 120.500000) scale(-1, 1) translate(-443.000000, -120.500000) translate(363.000000, 39.000000)">
                <path d="M49.5197174,34.6668695 C49.5197174,34.6668695 42.6727675,82.7886896 26.1456547,100.898274 C23.230215,104.092867 20.0981667,108.52314 17.7163123,112.998108 C15.131528,119.723533 1.98858472,145.598834 5.23309339,144.506286 C7.07880449,143.884765 14.0496583,140.999154 26.1456547,135.84945 C29.0023176,134.836534 31.091783,134.097338 32.4140508,133.631862 C33.8408746,133.129579 42.7723566,130.365981 49.0226825,126.400038 C55.9227621,122.021814 60.1241782,116.429224 60.1241782,116.429224 C60.574001,116.798166 60.9113682,117.074872 61.1362796,117.259342 C67.0266734,122.0906 75.8622641,129.337486 87.6430517,139 C89.0102467,138.662923 90.3561956,138.271086 91.6910331,137.854912 C104.536585,124.05544 115.907246,102.937625 110.712955,73.3404357 C100.190182,13.390129 49.5197174,34.6668695 49.5197174,34.6668695 Z" id="路径" fill="#B26E24"></path>
                <path d="M120.007875,19.1186938 C120.189479,17.7155005 121.180377,16.5524154 122.534484,16.1493069 C123.88859,15.7446123 125.35239,16.1789544 126.271379,17.253951 L159.141673,55.7338529 C159.898559,56.6186419 160.176449,57.8175969 159.888808,58.9472523 L151.61913,91.3085432 C151.383899,92.2309101 150.790334,93.0227303 149.968851,93.5046548 C149.414289,93.8328515 148.787817,94 148.15525,94 C147.851765,94 147.54706,93.9621781 147.247231,93.882874 C146.344087,93.644962 125.064749,87.8702864 120.113912,70.4468248 C115.516532,54.2650203 119.822614,20.5453123 120.007875,19.1186938" id="路径" fill="#634E42"></path>
                <path d="M135.703378,73.7689099 L135.710696,73.7518578 C135.710696,73.7518578 135.663131,73.7055388 135.581417,73.6090308 C135.524095,73.5316309 135.467993,73.4536264 135.408231,73.3779196 C134.469127,72.0433765 131.717674,66.6789607 132.792156,50.6196967 C133.625153,48.0511094 134.07885,45.3133308 134.07885,42.4696112 L134.07885,31.3822005 C132.290893,2.76674234 102.089303,3 87.2691418,3 L80.4118519,3 C65.5920563,3 50,16.6869883 50,31.3822005 L50,42.4696112 C50,46.0497181 50.7176219,49.4652293 52.0112684,52.5825091 L52.012488,52.5848069 C52.5424111,53.8598489 50.8747085,55.3473776 51.5881837,56.5143016 C69.1522368,97.520028 83.3088054,105 122.003434,105 C131.389597,105 139,97.4547219 139,88.1466617 L139,83.71177 C139,79.9879896 137.765749,76.5585706 135.703378,73.7689099" id="路径" fill="#FF8F15"></path>
                <path d="M91,41.5004136 C91,45.0899456 88.0891307,48 84.4997046,48 C80.909333,48 78,45.0899456 78,41.5004136 C78,37.9092273 80.909333,35 84.4997046,35 C88.0891307,35 91,37.9092273 91,41.5004136" id="路径" fill="#3C3C3B"></path>
                <path d="M132,41.5004136 C132,45.0899456 129.089446,48 125.499409,48 C121.909372,48 119,45.0899456 119,41.5004136 C119,37.9092273 121.909372,35 125.499409,35 C129.089446,35 132,37.9092273 132,41.5004136" id="路径" fill="#3C3C3B"></path>
                <path d="M89,39.9995908 C89,41.1044218 88.1042282,42 86.9999416,42 C85.8950706,42 85,41.1044218 85,39.9995908 C85,38.8948768 85.8950706,38 86.9999416,38 C88.1042282,38 89,38.8948768 89,39.9995908" id="路径" fill="#FFFFFF"></path>
                <path d="M131,39.9995908 C131,41.1044218 130.10371,42 128.999416,42 C127.895121,42 127,41.1044218 127,39.9995908 C127,38.8948768 127.895121,38 128.999416,38 C130.10371,38 131,38.8948768 131,39.9995908" id="路径" fill="#FFFFFF"></path>
                <path d="M56.9924605,19.1186938 C56.8102452,17.7155005 55.8195786,16.5524154 54.4657,16.1493069 C53.1110902,15.7446123 51.6469074,16.1789544 50.7290051,17.253951 L17.8583266,55.7338529 C17.1025289,56.6186419 16.8232945,57.8175969 17.1110607,58.9472523 L25.3798604,91.3085432 C25.6161919,92.2309101 26.2096411,93.0227303 27.0305244,93.5046548 C27.5853367,93.8328515 28.2123039,94 28.8443901,94 C29.1480012,94 29.4533186,93.9621781 29.752298,93.882874 C30.654965,93.644962 51.9354049,87.8702864 56.8858127,70.4468248 C61.4833687,54.2650203 57.1778449,20.5453123 56.9924605,19.1186938" id="路径" fill="#634E42"></path>
                <path d="M119,101 C119,101 123.97608,105.968719 126,119" id="路径" fill="#3C3C3B"></path>
                <path d="M125.475857,128 C121.388945,128 117.78342,125.012706 117.089439,120.797604 C115.476666,110.999872 111.035432,99.8642875 111,99.8271937 C111.12218,99.9570223 111,99.8271937 111,99.8271937 L128.856571,99 C130.113801,100.184531 131.33682,102.495481 133.883046,117.968577 C134.655222,122.659717 131.522533,127.099855 126.88459,127.882536 C126.411754,127.96167 125.94014,127.998764 125.475857,128" id="路径" fill="#F4A29D"></path>
                <path d="M130.848109,95.6040561 C129.098508,97.4627353 126.779327,98.5398969 124.161736,99.0693902 L124.161736,90.4763309 C129.733714,89.854146 133.999372,86.4330372 133.999372,82.2941439 C133.999372,77.7139658 128.782763,74 122.345272,74 C115.909019,74 110.69241,77.7139658 110.69241,82.2941439 C110.69241,86.4330372 114.958068,89.854146 120.530045,90.4763309 L120.530045,99.4643899 C109.163954,99.7975951 94.8329523,92.8027091 94.6366949,92.704565 C93.7398542,92.2610992 92.6493563,92.6124792 92.1964165,93.488506 C91.7433528,94.3633211 92.1005784,95.4320011 92.995438,95.8754669 C93.8178619,96.2837947 107.562197,103 119.695487,103 C125.024774,103 130.043268,101.705952 133.518944,98.0128268 C134.199963,97.2906803 134.151673,96.1650525 133.413695,95.5010654 C132.676956,94.834655 131.529129,94.8819096 130.848109,95.6040561" id="路径" fill="#3C3C3B"></path>
                <path d="M124.436264,137.056294 C116.156725,111.94614 90.1014497,110.281473 77.4809522,112.911306 C68.8792416,114.664934 65.4275213,115.21698 61.0537226,115.923793 L60.9593539,115.8458 C60.9593539,115.8458 46.5283941,117.679859 36,131.189743 C46.4043597,137.13185 58.44485,140.546489 71.2915637,140.546489 C72.4455961,140.546489 73.5907166,140.511149 74.7313201,140.455091 C78.0828119,143.634532 79.7306622,149.282946 80.5317583,153.787053 C81.4943675,159.196613 86.2097491,163.001218 91.5296762,163 C92.178415,163 92.8363099,162.943942 93.4973789,162.826952 C99.5787257,161.748453 103.633038,155.953802 102.552987,149.883737 C101.780702,145.542929 100.672694,141.595742 99.2455664,138.039739 C100.923571,139.464334 102.323719,141.404414 103.191593,144.036685 C104.74068,148.734556 109.113624,151.712922 113.811548,151.712922 C114.971318,151.712922 116.149401,151.531344 117.310392,151.149908 C123.176387,149.222014 126.367587,142.911877 124.436264,137.056294" id="路径" fill="#FF8F15"></path>
            </g>
        </g>
    </g>
</svg>